# xmcd CD database file
#
# Track frame offsets:
#	150
#	2750
#	22967
#	40363
#	61340
#	73475
#	88283
#	109897
#	118308
#	143758
#	153704
#	187540
#	202943
#	221779
#	246884
#
# Disc length: 3502 seconds
#
# Revision: 0
# Processed by: cddbd v1.5.2PL0 Copyright (c) Steve Scherf et al.
# Submitted via: CDex 1.51
#
DISCID=dc0dac0f
DTITLE=BlueShot - Crack the Seal
DYEAR=2006
DGENRE=Blues
TTITLE0=Land of the Tall (Intro)
TTITLE1=It's so easy
TTITLE2=Train gone blues
TTITLE3=Hey baby (naked love)
TTITLE4=Crossroads (acustic)
TTITLE5=Crossroads
TTITLE6=Break down
TTITLE7=Indian blues
TTITLE8=Save me
TTITLE9=Home
TTITLE10=Redhouse blues
TTITLE11=Over the hill
TTITLE12=Land of the tall
TTITLE13=Evil spell
TTITLE14=Nasty sticks
EXTD=YEAR: 2006
EXTT0=
EXTT1=
EXTT2=
EXTT3=
EXTT4=
EXTT5=
EXTT6=
EXTT7=
EXTT8=
EXTT9=
EXTT10=
EXTT11=
EXTT12=
EXTT13=
EXTT14=
PLAYORDER=
